<svg width="28" height="28" viewBox="0 0 28 28" fill="none" xmlns="http://www.w3.org/2000/svg">
<rect width="28" height="28" rx="14" fill="#F08300"/>
<mask id="mask0_247_910" style="mask-type:alpha" maskUnits="userSpaceOnUse" x="4" y="4" width="20" height="20">
<rect x="4" y="4" width="20" height="20" fill="#D9D9D9"/>
</mask>
<g mask="url(#mask0_247_910)">
<path d="M13.1663 14.8332H8.99959C8.76348 14.8332 8.56557 14.7533 8.40584 14.5936C8.24612 14.4339 8.16626 14.2359 8.16626 13.9998C8.16626 13.7637 8.24612 13.5658 8.40584 13.4061C8.56557 13.2464 8.76348 13.1665 8.99959 13.1665H13.1663V8.99984C13.1663 8.76373 13.2461 8.56581 13.4058 8.40609C13.5656 8.24637 13.7635 8.1665 13.9996 8.1665C14.2357 8.1665 14.4336 8.24637 14.5933 8.40609C14.7531 8.56581 14.8329 8.76373 14.8329 8.99984V13.1665H18.9996C19.2357 13.1665 19.4336 13.2464 19.5933 13.4061C19.7531 13.5658 19.8329 13.7637 19.8329 13.9998C19.8329 14.2359 19.7531 14.4339 19.5933 14.5936C19.4336 14.7533 19.2357 14.8332 18.9996 14.8332H14.8329V18.9998C14.8329 19.2359 14.7531 19.4339 14.5933 19.5936C14.4336 19.7533 14.2357 19.8332 13.9996 19.8332C13.7635 19.8332 13.5656 19.7533 13.4058 19.5936C13.2461 19.4339 13.1663 19.2359 13.1663 18.9998V14.8332Z" fill="white"/>
</g>
</svg>
