<svg width="28" height="28" viewBox="0 0 28 28" fill="none" xmlns="http://www.w3.org/2000/svg">
<rect width="28" height="28" rx="14" fill="#FFEACC"/>
<mask id="mask0_247_918" style="mask-type:alpha" maskUnits="userSpaceOnUse" x="4" y="4" width="20" height="20">
<rect x="4" y="4" width="20" height="20" fill="#D9D9D9"/>
</mask>
<g mask="url(#mask0_247_918)">
<path d="M9.83333 14.8332C9.59722 14.8332 9.39931 14.7533 9.23958 14.5936C9.07986 14.4339 9 14.2359 9 13.9998C9 13.7637 9.07986 13.5658 9.23958 13.4061C9.39931 13.2464 9.59722 13.1665 9.83333 13.1665H18.1667C18.4028 13.1665 18.6007 13.2464 18.7604 13.4061C18.9201 13.5658 19 13.7637 19 13.9998C19 14.2359 18.9201 14.4339 18.7604 14.5936C18.6007 14.7533 18.4028 14.8332 18.1667 14.8332H9.83333Z" fill="#F08300"/>
</g>
</svg>
